<?xml version="1.0"?>
<mxfile host="Electron" modified="2022-06-30T15:02:55.570Z" agent="5.0 (X11; Linux x86_64) AppleWebKit/537.36 (KHTML, like Gecko) draw.io/18.1.3 Chrome/100.0.4896.143 Electron/18.2.3 Safari/537.36" etag="gDCjTwl9RYENM7uO6mVu" version="18.1.3">
  <diagram id="sJX8Y8-hWpyE5Ozj8zXZ" name="Page-1">
    <mxGraphModel dx="2" dy="1" grid="1" gridSize="10" guides="1" tooltips="1" connect="1" arrows="1" fold="1" page="1" pageScale="1" pageWidth="850" pageHeight="1100" math="0" shadow="0">
      <root>
        <mxCell id="0"/>
        <mxCell id="1" parent="0"/>
        <mxCell id="wIZWNo4OfgcowNVVymCo-24" value="" style="rounded=1;whiteSpace=wrap;html=1;fillColor=#f5f5f5;sketch=1;dashed=1;fontColor=#333333;strokeColor=#666666;" parent="1" vertex="1">
          <mxGeometry y="70" width="80" height="150" as="geometry"/>
        </mxCell>
        <mxCell id="1KhRFnV4-pOyOHJ_iMAp-13" value="&lt;font face=&quot;mono&quot;&gt;&lt;br&gt;&lt;/font&gt;" style="rounded=1;whiteSpace=wrap;html=1;fillColor=none;strokeColor=#82b366;sketch=1;" parent="1" vertex="1">
          <mxGeometry x="160" y="130" width="140" height="80" as="geometry"/>
        </mxCell>
        <mxCell id="Er85-SscRyg3KY1XXSzS-4" value="&lt;font face=&quot;mono&quot;&gt;xa64 uop $1&lt;br&gt;&lt;/font&gt;" style="rounded=1;whiteSpace=wrap;html=1;fillColor=#d5e8d4;strokeColor=#82b366;sketch=1;" parent="1" vertex="1">
          <mxGeometry x="160" y="130" width="90" height="10" as="geometry"/>
        </mxCell>
        <mxCell id="1KhRFnV4-pOyOHJ_iMAp-4" value="&lt;font face=&quot;mono&quot;&gt;static BT&lt;/font&gt;" style="rounded=1;whiteSpace=wrap;html=1;fillColor=#ffe6cc;strokeColor=#d79b00;sketch=1;" parent="1" vertex="1">
          <mxGeometry x="10" y="130" width="60" height="30" as="geometry"/>
        </mxCell>
        <mxCell id="1KhRFnV4-pOyOHJ_iMAp-10" value="&lt;font face=&quot;mono&quot;&gt;xa64 uop $2&lt;br&gt;&lt;/font&gt;" style="rounded=1;whiteSpace=wrap;html=1;fillColor=#d5e8d4;strokeColor=#82b366;sketch=1;" parent="1" vertex="1">
          <mxGeometry x="160" y="140" width="110" height="20" as="geometry"/>
        </mxCell>
        <mxCell id="1KhRFnV4-pOyOHJ_iMAp-11" value="&lt;font face=&quot;mono&quot;&gt;xa64 uop $3&lt;br&gt;&lt;/font&gt;" style="rounded=1;whiteSpace=wrap;html=1;fillColor=#d5e8d4;strokeColor=#82b366;sketch=1;" parent="1" vertex="1">
          <mxGeometry x="160" y="160" width="130" height="20" as="geometry"/>
        </mxCell>
        <mxCell id="1KhRFnV4-pOyOHJ_iMAp-12" value="&lt;font face=&quot;mono&quot;&gt;memory or&lt;br&gt;dedicated ram&lt;br&gt;&lt;/font&gt;" style="rounded=1;whiteSpace=wrap;html=1;fillColor=#d5e8d4;strokeColor=#82b366;sketch=1;" parent="1" vertex="1">
          <mxGeometry x="160" y="180" width="140" height="30" as="geometry"/>
        </mxCell>
        <mxCell id="wIZWNo4OfgcowNVVymCo-1" value="" style="endArrow=none;dashed=1;html=1;rounded=0;sketch=1;fillColor=#f5f5f5;strokeColor=#666666;" parent="1" edge="1">
          <mxGeometry width="50" height="50" relative="1" as="geometry">
            <mxPoint x="150" y="270" as="sourcePoint"/>
            <mxPoint x="150" y="30" as="targetPoint"/>
          </mxGeometry>
        </mxCell>
        <mxCell id="wIZWNo4OfgcowNVVymCo-2" value="&lt;font face=&quot;mono&quot;&gt;&lt;b&gt;BT Mode&lt;/b&gt;&lt;/font&gt;" style="text;html=1;align=center;verticalAlign=middle;resizable=0;points=[];autosize=1;strokeColor=none;fillColor=none;" parent="1" vertex="1">
          <mxGeometry x="190" y="30" width="70" height="20" as="geometry"/>
        </mxCell>
        <mxCell id="wIZWNo4OfgcowNVVymCo-3" value="&lt;font face=&quot;mono&quot;&gt;&lt;b&gt;User Mode&lt;/b&gt;&lt;/font&gt;" style="text;html=1;align=center;verticalAlign=middle;resizable=0;points=[];autosize=1;strokeColor=none;fillColor=none;" parent="1" vertex="1">
          <mxGeometry x="35" y="30" width="80" height="20" as="geometry"/>
        </mxCell>
        <mxCell id="wIZWNo4OfgcowNVVymCo-4" value="&lt;font face=&quot;mono&quot;&gt;ucache hierarchy&lt;/font&gt;" style="text;html=1;align=center;verticalAlign=middle;resizable=0;points=[];autosize=1;strokeColor=none;fillColor=none;" parent="1" vertex="1">
          <mxGeometry x="165" y="110" width="130" height="20" as="geometry"/>
        </mxCell>
        <mxCell id="wIZWNo4OfgcowNVVymCo-15" style="edgeStyle=orthogonalEdgeStyle;rounded=1;sketch=1;orthogonalLoop=1;jettySize=auto;html=1;fillColor=#ffe6cc;strokeColor=#d79b00;" parent="1" source="wIZWNo4OfgcowNVVymCo-10" target="1KhRFnV4-pOyOHJ_iMAp-12" edge="1">
          <mxGeometry relative="1" as="geometry">
            <Array as="points">
              <mxPoint x="250" y="260"/>
            </Array>
          </mxGeometry>
        </mxCell>
        <mxCell id="wIZWNo4OfgcowNVVymCo-10" value="&lt;font face=&quot;mono&quot;&gt;dynamic BT&lt;/font&gt;" style="rounded=1;whiteSpace=wrap;html=1;fillColor=#ffe6cc;strokeColor=#d79b00;sketch=1;" parent="1" vertex="1">
          <mxGeometry x="80" y="240" width="60" height="30" as="geometry"/>
        </mxCell>
        <mxCell id="wIZWNo4OfgcowNVVymCo-17" value="&lt;font face=&quot;mono&quot;&gt;x64&lt;br&gt;(Guest)&lt;br&gt;&lt;/font&gt;" style="rounded=0;whiteSpace=wrap;html=1;fillColor=#f8cecc;strokeColor=#b85450;sketch=1;" parent="1" vertex="1">
          <mxGeometry x="10" y="80" width="60" height="30" as="geometry"/>
        </mxCell>
        <mxCell id="wIZWNo4OfgcowNVVymCo-20" value="" style="endArrow=classic;html=1;rounded=1;sketch=1;fillColor=#ffe6cc;strokeColor=#d79b00;" parent="1" source="wIZWNo4OfgcowNVVymCo-17" target="1KhRFnV4-pOyOHJ_iMAp-4" edge="1">
          <mxGeometry width="50" height="50" relative="1" as="geometry">
            <mxPoint x="70" y="130" as="sourcePoint"/>
            <mxPoint x="200" y="190" as="targetPoint"/>
          </mxGeometry>
        </mxCell>
        <mxCell id="wIZWNo4OfgcowNVVymCo-23" value="&lt;font face=&quot;mono&quot;&gt;xa64 uop&lt;br&gt;&lt;/font&gt;" style="rounded=0;whiteSpace=wrap;html=1;fillColor=#d5e8d4;strokeColor=#82b366;sketch=1;" parent="1" vertex="1">
          <mxGeometry x="10" y="180" width="60" height="30" as="geometry"/>
        </mxCell>
        <mxCell id="wIZWNo4OfgcowNVVymCo-25" value="&lt;font face=&quot;mono&quot;&gt;offline&lt;/font&gt;" style="text;html=1;align=center;verticalAlign=middle;resizable=0;points=[];autosize=1;strokeColor=none;fillColor=none;" parent="1" vertex="1">
          <mxGeometry x="5" y="50" width="70" height="20" as="geometry"/>
        </mxCell>
        <mxCell id="wIZWNo4OfgcowNVVymCo-26" value="&lt;font face=&quot;mono&quot;&gt;uop&lt;br&gt;miss&lt;/font&gt;" style="endArrow=classic;html=1;rounded=1;sketch=1;fillColor=#ffe6cc;strokeColor=#d79b00;" parent="1" edge="1">
          <mxGeometry x="-0.6" width="50" height="50" relative="1" as="geometry">
            <mxPoint x="200" y="210" as="sourcePoint"/>
            <mxPoint x="140" y="250" as="targetPoint"/>
            <Array as="points">
              <mxPoint x="200" y="250"/>
            </Array>
            <mxPoint as="offset"/>
          </mxGeometry>
        </mxCell>
        <mxCell id="wIZWNo4OfgcowNVVymCo-28" value="&lt;font face=&quot;mono&quot;&gt;load&lt;/font&gt;" style="endArrow=classic;html=1;rounded=1;sketch=1;fillColor=#d5e8d4;strokeColor=#82b366;" parent="1" source="wIZWNo4OfgcowNVVymCo-23" target="1KhRFnV4-pOyOHJ_iMAp-12" edge="1">
          <mxGeometry width="50" height="50" relative="1" as="geometry">
            <mxPoint x="190" y="200" as="sourcePoint"/>
            <mxPoint x="240" y="150" as="targetPoint"/>
          </mxGeometry>
        </mxCell>
        <mxCell id="wIZWNo4OfgcowNVVymCo-29" value="&lt;font face=&quot;mono&quot;&gt;online&lt;/font&gt;" style="text;html=1;align=center;verticalAlign=middle;resizable=0;points=[];autosize=1;strokeColor=none;fillColor=none;" parent="1" vertex="1">
          <mxGeometry x="80" y="220" width="60" height="20" as="geometry"/>
        </mxCell>
        <mxCell id="wIZWNo4OfgcowNVVymCo-30" value="" style="endArrow=classic;html=1;rounded=1;sketch=1;fillColor=#ffe6cc;strokeColor=#d79b00;" parent="1" source="1KhRFnV4-pOyOHJ_iMAp-4" target="wIZWNo4OfgcowNVVymCo-23" edge="1">
          <mxGeometry width="50" height="50" relative="1" as="geometry">
            <mxPoint x="50" y="120" as="sourcePoint"/>
            <mxPoint x="50" y="140" as="targetPoint"/>
          </mxGeometry>
        </mxCell>
      </root>
    </mxGraphModel>
  </diagram>
</mxfile>
